<?xml version="1.0" encoding="UTF-8"?>
<svg xmlns="http://www.w3.org/2000/svg" version="1.1" viewBox="0 0 60 60">
  <defs>
    <style>
      .cls-1 {
        fill: #96bb16;
        stroke-width: 0px;
      }
    </style>
  </defs>
    <path class="cls-1" d="M42.3,34.8l-3.9,4.6,3.5,5.3-4.7,4.8,1.2,5-4.2-4.9,2.8-4.9-4.6-6.5,2.7-4.4c-4-.5-8.3-1.1-12.3-1.6l-.2-4.9h5.8c.9,0,1.4-1,.8-1.7l-3.3-4.1h1.6c.8,0,1.1-.9.7-1.5l-3.1-3.8h1c.5,0,.8-.6.5-1l-5.3-6.5c-.2-.3-.7-.3-.9,0l-5.4,6.6c-.3.4,0,1,.5,1h1l-3.1,3.8c-.5.6,0,1.5.7,1.5h1.6l-3.3,4.1c-.5.7,0,1.7.8,1.7h5.8l-.2,4.4c-5.4-.6-16.1-1-18.9-1v29.3h60v-23.4c0,0-10.9-.8-17.7-1.8Z"/>
</svg>