<?xml version="1.0" encoding="UTF-8"?>
<svg xmlns="http://www.w3.org/2000/svg" version="1.1" viewBox="0 0 60 60">
  <defs>
    <style>
      .cls-1 {
        fill: #96bb16;
        stroke-width: 0px;
      }
    </style>
  </defs>
      <path class="cls-1" d="M21.4,10.5c.1.1.3.2.5.2h0l2.3-.2c.3,0,.6-.2.7-.5l1.4-3.8c0-.2,0-.5,0-.7l-1.1-1.7c-.2-.3-.4-.4-.7-.3l-4.2.4c-.3,0-.6.3-.7.6l-.7,3c0,.3,0,.6.2.8l2.3,2.1ZM21,5.5l3.1-.3.6.9-1.1,2.9h-1.4c0,.1-1.7-1.5-1.7-1.5l.5-2.1Z"/>
      <path class="cls-1" d="M31.7,24.5c.1.1.3.2.5.2h0l2.3-.2c.3,0,.6-.2.7-.5l1.4-3.8c0-.2,0-.5,0-.7l-1.1-1.7c-.2-.3-.4-.4-.7-.3l-4.2.4c-.3,0-.6.3-.7.6l-.7,3c0,.3,0,.6.2.8l2.3,2.1Z"/>
      <path class="cls-1" d="M44,24.5c.1.1.3.2.5.2h0l4.8-.4c.3,0,.6-.2.7-.5l3-7.9c0-.2,0-.5,0-.7l-2.3-3.5c-.2-.3-.4-.4-.7-.3l-8.7.9c-.3,0-.6.3-.7.6l-1.5,6.4c0,.3,0,.6.2.8l4.8,4.5ZM42,13.7l7.7-.8,1.8,2.8-2.7,7.1-3.9.3-4.2-3.9,1.3-5.4Z"/>
      <path class="cls-1" d="M49.3,29.8c-.7-.3-1.5-.3-2.3,0-.7.3-1.3.9-1.6,1.6-.6,1.5.2,3.3,1.7,3.8.3.1.7.2,1.1.2s.8,0,1.2-.3c.7-.3,1.3-.9,1.6-1.6.3-.7.3-1.5,0-2.3-.3-.7-.9-1.3-1.6-1.6ZM49.5,33.1h0c-.1.3-.4.6-.7.8-.3.1-.7.2-1,0-.7-.3-1.1-1.1-.8-1.8.1-.3.4-.6.7-.8.2,0,.4-.1.6-.1s.3,0,.5,0c.3.1.6.4.8.7s.2.7,0,1Z"/>
      <path class="cls-1" d="M59.9,38l-2.5-3.7,2.1-5.4c0-.2,0-.4,0-.6,0-.2-.2-.3-.4-.4l-2.9-1.1c-.4-.2-.9,0-1,.5l-.9,2.3-2.7-3.9c-.2-.3-.5-.4-.8-.3l-14.6,3.5c-.4.1-.7.5-.6,1,.1.4.5.7,1,.6l1.6-.4-3.7,9.7-1.2-.3v-.2s-4,10.2-4,10.2l5.3-1.5c.2,0,.5,0,.7.1.2.2.3.4.3.6v4c0,.4-.3.8-.8.8h0c-.4,0-.8-.4-.8-.8v-2.9s-5.7,1.6-5.7,1.6c-.1,0-.2,0-.4,0s0,0,0,0c-.2,0-.4,0-.6-.1l-6.4-5c-.3-.3-.4-.8-.1-1.1.3-.3.8-.4,1.1-.1l5.6,4.4,5-13.1-1.2-5.4c0-.3-.3-.6-.7-.6l-7.9-1-.4-3.1h.6c.3,0,.6-.3.7-.6l2.3-6c0-.2,0-.5,0-.7l-1.8-2.7c-.2-.3-.4-.4-.7-.3l-6.7.7c-.3,0-.6.3-.7.6l-.3,1.2-2.3-.9,3.3-8.2c.1-.3,0-.7-.2-.9L7.1.2c-.3-.3-.8-.3-1.1,0L.3,5.6C0,5.8,0,6,0,6.2v5.2l5.9,12.4,5.2,1.1c.3,0,.5.3.6.5,0,.3,0,.6-.1.8l-3.3,4c-.2.2-.4.3-.6.3s-.4,0-.5-.2c-.3-.3-.4-.8-.1-1.1l2.5-3-4.3-.9c-.2,0-.5-.2-.6-.4L0,15.2v43.5l8.5-7.4-2.1-5.6c-.1-.3,0-.7.2-.9l3.8-3.3c.3-.3.8-.3,1.1,0,.3.3.3.8,0,1.1l-3.4,2.9,2,5.5,3.5,3.6c.3.3.3.8,0,1.1-.2.1-.4.2-.6.2s-.4,0-.6-.2l-3.1-3.2L.9,60h56.2c.3,0,.6-.2.7-.5.1-.3,0-.6-.1-.9l-5.8-6.5,5.7-14.7.9,1.4c.2.2.4.3.7.3s.3,0,.4-.1c.4-.2.5-.7.2-1.1ZM16.5,21.9l.9-3.9,5.6-.6,1.3,1.9-2,5.2-2.8.2-3.1-2.9ZM56.2,28.5l1.4.5-1.4,3.6-1-1.5,1-2.6ZM42.5,41.6c0,0-.1-.1-.2-.2l1.3-3.4,4.4,1.7-2.2,5.6-3.3-3.8ZM50.7,50.8l-3.7-4.1,2.8-7.1c0-.2,0-.4,0-.6,0-.2-.2-.3-.4-.4l-5.9-2.3c-.4-.2-.9,0-1,.5l-1.7,4.3-4.8-1.1,4.1-10.5,10.5-2.5,3.1,4.5c0,0,0,.2.1.3l2.1,3,.7,1.1-5.8,14.9Z"/>
</svg>