<?xml version="1.0" encoding="UTF-8"?>
<svg xmlns="http://www.w3.org/2000/svg" version="1.1" viewBox="0 0 60 60">
  <defs>
    <style>
      .cls-1 {
        fill: #96bb16;
        stroke-width: 0px;
      }
    </style>
  </defs>
        <path class="cls-1" d="M5.8,26.3c.2,0,.5,0,.6-.3l3.5-3.3c.4-.3.5-.9.2-1.3-.3-.4-.9-.5-1.3-.2,0,0,0,0-.1.1l-3.5,3.3c-.4.4-.4,1,0,1.3.2.2.4.3.7.3Z"/>
        <path class="cls-1" d="M11,26c.4.4.9.4,1.3,0,0,0,0,0,0,0l5.4-5c.4-.3.4-.9,0-1.3-.3-.4-.9-.4-1.3,0,0,0,0,0,0,0l-5.3,5c-.4.4-.4.9,0,1.3Z"/>
        <path class="cls-1" d="M42.1,8.3c-.3-.4-.9-.4-1.3,0l-15.1,11.9-7.1-6.7c-.4-.3-.9-.3-1.3,0l-4,3.7c-.4.3-.4.9,0,1.3.3.4.9.4,1.3,0,0,0,0,0,0,0l3.3-3.1,12.2,11.4v-2.6l-3.1-2.9,14.2-11.2,15.9,17.2c.3.4.9.4,1.3,0,.4-.3.4-.9,0-1.3,0,0,0,0,0,0l-16.5-17.8Z"/>
        <path class="cls-1" d="M26.2,4.5c-1.6,0-2.9,1.3-2.9,2.9s1.3,2.9,2.9,2.9,2.9-1.3,2.9-2.9c0-1.6-1.3-2.9-2.9-2.9Z"/>
        <path class="cls-1" d="M19.8,8.1h1.6c.4,0,.8-.4.8-.8s-.4-.8-.8-.8h-1.6c-.4,0-.8.4-.8.8s.4.8.8.8Z"/>
        <path class="cls-1" d="M32.7,6.5h-1.6c-.4,0-.8.4-.8.8s.4.8.8.8h1.6c.4,0,.8-.4.8-.8s-.4-.8-.8-.8Z"/>
        <path class="cls-1" d="M26.2,3.3c.4,0,.8-.4.8-.8V.9c0-.4-.4-.8-.8-.8s-.8.4-.8.8v1.6c0,.4.4.8.8.8Z"/>
        <path class="cls-1" d="M27.1,13.7v-1.6c0-.4-.4-.8-.8-.8s-.8.4-.8.8v1.6c0,.4.4.8.8.8s.8-.4.8-.8Z"/>
        <path class="cls-1" d="M22.3,4.5c.3.3.8.3,1.1,0,.3-.3.3-.8,0-1.1h0l-1.1-1.1c-.3-.3-.8-.3-1.1,0-.3.3-.3.8,0,1.1h0l1.1,1.1Z"/>
        <path class="cls-1" d="M30.2,10.1c-.3-.3-.8-.3-1.1,0-.3.3-.3.8,0,1.1l1.1,1.1c.3.3.8.3,1.1,0,.3-.3.3-.8,0-1.1l-1.1-1.1Z"/>
        <path class="cls-1" d="M29.6,4.7c.2,0,.4,0,.6-.2l1.1-1.1c.3-.3.3-.8,0-1.1-.3-.3-.8-.3-1.1,0h0l-1.1,1.1c-.3.3-.3.8,0,1.1.1.1.4.2.6.2h0Z"/>
        <path class="cls-1" d="M21.2,11.3c-.3.3-.3.8,0,1.1.3.3.8.3,1.1,0l1.1-1.1c.3-.3.3-.8,0-1.1-.3-.3-.8-.3-1.1,0l-1.1,1.1Z"/>

        <path class="cls-1" d="M16.4,44.1c0-.5.4-.9.9-.9h37c-.4-5.5-4.1-10.3-9.3-12v-7.7c0-.5-.3-.9-.8-.9l-10.3-1.9c-.5,0-1,.2-1.1.8,0,0,0,.1,0,.2v6.5c0,.5.4.9.9.9,0,0,0,0,.1,0l9.2-1.3v3c-.8-.1-1.6-.2-2.3-.2H7.5c-1,0-1.9.8-1.9,1.9v10.8h7c.5,0,.9.4.9.9s-.4.9-.9.9h-7v8.4c0,1.6,1.3,2.8,2.8,2.8h1.9c.5,0,.9-.4.9-.9,0-3.6,2.9-6.6,6.6-6.6s6.6,2.9,6.6,6.6.4.9.9.9h9.4c.5,0,.9-.4.9-.9,0-3.6,2.9-6.6,6.6-6.6s6.6,2.9,6.6,6.6.4.9.9.9h3.8c.5,0,.9-.4.9-.9v-10.3H17.3c-.5,0-.9-.4-.9-.9ZM40.8,32.3c5.4,0,10.1,3.7,11.4,8.9h-12.8v-8.9h1.4ZM28.1,35.2c0-.5.4-.9.9-.9h5.6c.5,0,.9.4.9.9v5.2c0,.5-.4.9-.9.9h-5.6c-.5,0-.9-.4-.9-.9v-5.2ZM18.7,35.2c0-.5.4-.9.9-.9h5.6c.5,0,.9.4.9.9v5.2c0,.5-.4.9-.9.9h-5.6c-.5,0-.9-.4-.9-.9v-5.2ZM10.3,41.2c-.5,0-.9-.4-.9-.9v-5.2c0-.5.4-.9.9-.9h5.6c.5,0,.9.4.9.9v5.2c0,.5-.4.9-.9.9h-5.6Z"/>
        <path class="cls-1" d="M42.2,50.6c-2.6,0-4.7,2.1-4.7,4.7s2.1,4.7,4.7,4.7,4.7-2.1,4.7-4.7-2.1-4.7-4.7-4.7Z"/>
        <path class="cls-1" d="M17.8,50.6c-2.6,0-4.7,2.1-4.7,4.7s2.1,4.7,4.7,4.7,4.7-2.1,4.7-4.7-2.1-4.7-4.7-4.7Z"/>
</svg>