<?xml version="1.0" encoding="UTF-8"?>
<svg xmlns="http://www.w3.org/2000/svg" version="1.1" viewBox="0 0 60 60">
  <defs>
    <style>
      .cls-1 {
        fill: #96bb16;
        stroke-width: 0px;
      }
    </style>
  </defs>
    <path class="cls-1" d="M59.9,47.7c-.8-5.3-7.1-9.6-18.7-12.8-10.9-3.1-11.4-5.6-11.4-5.9,0-1,2.2-2.6,3.7-3.3,1-.4,1.4-1.5,1-2.5-.3-.8-1.2-1.3-2.1-1.1-3.4.6-20.4,4-22.6,10-.6,1.6-.2,3.4,1,4.7,1.4,1.6,2.9,3.2,4.5,4.6,2.1,1.9,4,3.7,3.8,4.9-.4,2.3-6.4,5.7-17.9,10-1,.4-1.5,1.5-1.1,2.5.3.7,1,1.2,1.8,1.2h48.8c.4,0,.7-.1,1-.3,6-3.9,8.8-7.9,8.2-12ZM32.2,40.9c1.1,0,1.9.9,1.9,1.9s-.9,1.9-1.9,1.9h-5.5c-1.1,0-1.9-.9-1.9-1.9s.9-1.9,1.9-1.9h5.5ZM18.9,36.4c0-1.1.9-1.9,1.9-1.9h4.8c1.1,0,1.9.9,1.9,1.9s-.9,1.9-1.9,1.9h-4.8c-1.1,0-1.9-.9-1.9-1.9ZM37.4,54.8h-12.2c-1.1,0-1.9-.9-1.9-1.9s.9-1.9,1.9-1.9h12.2c1.1,0,1.9.9,1.9,1.9s-.9,1.9-1.9,1.9ZM47.2,49.4h-6.9c-1.1,0-1.9-.9-1.9-1.9s.9-1.9,1.9-1.9h6.9c1.1,0,1.9.9,1.9,1.9s-.9,1.9-1.9,1.9Z"/>
</svg>