<?xml version="1.0" encoding="UTF-8"?>
<svg xmlns="http://www.w3.org/2000/svg" version="1.1" viewBox="0 0 60 60">
  <defs>
    <style>
      .cls-1 {
        fill: #96bb16;
        stroke-width: 0px;
      }
    </style>
  </defs>
      <path class="cls-1" d="M59.8,59.5c.2-.3.1-.7,0-1.1l-13.3-18h0l-6.7-9c-.2-.2-.5-.4-.8-.4h-18c-.3,0-.6.1-.8.4l-5.6,7.5h0L.2,58.4c-.3.4-.2,1.1.2,1.4.2.1.4.2.6.2h57.9c.4,0,.7-.2.8-.5ZM21.5,33.1h17l5.8,7.9-2.3,2.5-5.3-6.1c-.4-.4-1.1-.4-1.5,0h0l-5.3,6.1-6.2-6.2c-.2-.2-.4-.3-.7-.3h0c-.3,0-.5.2-.7.4l-4,5.6-1.6-3.4,4.9-6.7h0Z"/>
      <rect class="cls-1" x="23" y="19.1" width="2" height="9.9"/>
      <rect class="cls-1" x="29" y="19.1" width="2" height="9.9"/>
      <rect class="cls-1" x="35" y="19.1" width="2" height="9.9"/>
      <path class="cls-1" d="M49.5,14c0-1.6-.6-3.1-1.8-4.2l-1.4,1.4c1.6,1.6,1.6,4.1,0,5.6s-4,1.5-5.6,0l-1.4,1.4c2.3,2.3,6.1,2.3,8.5,0,1.2-1.2,1.8-2.6,1.8-4.2h-.1Z"/>
      <path class="cls-1" d="M21.3,18.3l-1.4-1.4c-1.6,1.5-4,1.5-5.6,0-1.6-1.6-1.6-4.1,0-5.6l-1.4-1.4c-2.3,2.3-2.3,6.1,0,8.5,2.3,2.3,6.1,2.3,8.5,0h-.1Z"/>
      <path class="cls-1" d="M24.7,1.8c-2.2-2.2-5.8-2.2-8,0-2.2,2.2-2.2,5.8,0,8l1.4-1.4c-1.5-1.5-1.5-3.8,0-5.2h0c1.5-1.4,3.7-1.4,5.2,0l1.4-1.4h.1Z"/>
      <path class="cls-1" d="M34,7.8h2c0-3.2-2.5-5.7-5.7-5.7s-5.7,2.5-5.7,5.7h2c0-2,1.7-3.7,3.7-3.7s3.7,1.7,3.7,3.7h0Z"/>
      <path class="cls-1" d="M42.9,3.1c1.5,1.5,1.5,3.8,0,5.2l1.4,1.4c2.2-2.2,2.2-5.8,0-8s-5.8-2.2-8,0h0l1.4,1.4c1.5-1.4,3.7-1.4,5.2,0h.1Z"/>
      <path class="cls-1" d="M39.1,13.6c0-1.1-.4-2.1-1.2-2.9-1.6-1.5-4-1.5-5.6,0l1.4,1.4c.7-.7,2-.7,2.9,0,.7.7.7,2,0,2.9l1.4,1.4c.7-.7,1.2-1.8,1.2-2.9h0Z"/>
      <path class="cls-1" d="M23.1,10.8c-1.6,1.6-1.6,4.1,0,5.6l1.4-1.4c-.7-.7-.7-2,0-2.9.7-.7,2-.7,2.9,0l1.4-1.4c-1.6-1.5-4-1.5-5.6,0Z"/>
      <path class="cls-1" d="M6.5.4c-1.9,1.9-1.9,5.1,0,7.1,1.9,1.9,5.1,1.9,7.1,0l-1.4-1.4c-1.2,1.2-3.1,1.2-4.2,0s-1.2-3.1,0-4.2l-1.4-1.4h-.1Z"/>
      <path class="cls-1" d="M55.5,7.5c1.9-1.9,1.9-5.1,0-7.1l-1.4,1.4c1.2,1.2,1.2,3.1,0,4.2s-3.1,1.2-4.2,0l-1.4,1.4c1.9,1.9,5.1,1.9,7.1,0h-.1Z"/>
      <rect class="cls-1" x="31" y="14" width="2" height="2"/>
      <rect class="cls-1" x="26" y="16" width="2" height="2"/>
      <rect class="cls-1" x="1" y="7.1" width="2" height="2"/>
      <rect class="cls-1" x="0" y="13.1" width="2" height="2"/>
      <rect class="cls-1" x="4" y="20.1" width="2" height="2"/>
      <rect class="cls-1" x="11" y="29" width="2" height="2"/>
      <rect class="cls-1" x="3" y="35.1" width="2" height="2"/>
      <rect class="cls-1" x="1" y="27" width="2" height="2"/>
      <rect class="cls-1" x="44.9" y="27" width="2" height="2"/>
      <rect class="cls-1" x="55.9" y="38" width="2" height="2"/>
      <rect class="cls-1" x="55" y="11.1" width="2" height="2"/>
      <rect class="cls-1" x="57.9" y="20.1" width="2" height="2"/>
      <rect class="cls-1" x="49.9" y="21" width="2" height="2"/>
      <rect class="cls-1" x="53.9" y="29" width="2" height="2"/>
</svg>