<?xml version="1.0" encoding="UTF-8"?>
<svg xmlns="http://www.w3.org/2000/svg" version="1.1" viewBox="0 0 60 60">
  <defs>
    <style>
      .cls-1 {
        fill: #96bb16;
        stroke-width: 0px;
      }
    </style>
  </defs>
      <path class="cls-1" d="M53.2,43.5c0,.3,0,.5,0,.7-.1.7-.7,1.1-1.2,1.4,1.6.9,4.1,2.4,5,3.7,0,0-.7-2.9-3.8-5.8Z"/>
      <path class="cls-1" d="M18.6,44.6s-3.1-2.3-1.7-5.7c1.3-3.4,5.2-6.5,1.3-7.6-1.7-.5-3.5-.9-5.1-.9s-3.9.5-5.1,2c0,0-2.5,3.5,1.5,6.3,0,0,.6.3,1.5.3s1.3,0,2-.4c0-.1.2-.3.3-.3.7-.8.9-1.5,1-2,0-.3,0-.7-.3-1.1-.4-.5-.8-.7-1.1-.7-.7,0-1.3,1-1.4,1.3-.1.3-.5.4-.7.3-.3-.1-.4-.5-.3-.7,0-.2.9-1.7,2.3-1.9.7,0,1.5.3,2.1,1.1.5.5.7,1.3.5,1.9-.1.6-.4,1.5-1.1,2.4-.1.4-.3.8-.5,1.1-.5.8-.9,1.6-1.2,2.4h0c0,.1,0,.2,0,.3-.3,1-.3,2.1.2,3.1.9,1.9,5.1,6,13,7.3-.1,0-2.3-6-7.1-8.4Z"/>
      <path class="cls-1" d="M9,39.7h0c0,0-.1-.1-.1-.1-1.5-1.1-2.4-2.3-2.7-3.8,0-.3,0-.7,0-1h-.7c-.6,0-1.2,0-1.9.1h-.4c1.9,3.3,4.9,8,8.2,10.6-.4-1.2-.3-2.4,0-3.5,0-.3.3-1.1.7-2.1-.4,0-.7.1-1.1.1-1.1,0-1.9-.3-1.9-.3Z"/>
      <path class="cls-1" d="M24.2,21.6h.5s3.9-6.5,6.6-7.4c.5-.1,1-.3,1.6-.3,2.7,0,5.6,2.5,7.8,5.8,1,1.5,1.8,2.1,2.2,2.1.7,0,.5-1.6-1-3.4-1.6-2.1-5.5-7.3-9.8-7.3s-3.5.7-5.1,2.7c0,0-7.8,7.8-2.9,7.8Z"/>
      <path class="cls-1" d="M31,16.1c-1.5.5-3.9,3.7-5.5,6,1.3.5,2.5.9,3.7,1.3.2-1.4,1-4.3,4.2-7.5-.4,0-.8-.1-1.1-.1-.5.1-.9.2-1.3.3Z"/>
      <path class="cls-1" d="M18.9,16.1c.3.5,1.1,1.3,1.8,2.2.3.3.5.6.8.9.4-.7.9-1.5,1.6-2.3,1.1-1.4,2.3-2.7,2.6-2.9.1-.2.3-.4.5-.5-1.3-.3-3.8-.7-6.8,0-.9.3-1.6.6-2.1,1,.6.3,1.2.9,1.7,1.7Z"/>
      <path class="cls-1" d="M6.2,33.8c.3-1.1.8-1.9.8-1.9h0c0,0,0-.1,0-.1,1.4-1.6,3.4-2.4,5.9-2.4s3.2.3,5.1.8l3.7-8.7c-1.3-1.7-3.3-3.7-3.9-4.8-.6-1.1-1.5-1.7-2.7-1.7s-1.6.3-2.5.8c-2.2,1.3-9.1,3.1-11.5,5.9-2.4,2.7-.2,6.4-.4,8.2-.2,1.9,2.5,4,2.5,4,1.3,0,2.1,0,3,0Z"/>
      <path class="cls-1" d="M17.8,39.3c-.8,2.1.5,3.6,1.1,4.2.6-3.3,3.4-7.5,4.5-8.9-.9-.5-1.7-.9-2.5-1.2-.1,1.1-.9,2.1-1.6,3.3-.5.8-1.1,1.7-1.5,2.6Z"/>
      <path class="cls-1" d="M19.1,30.5c.9.4,1.4.9,1.7,1.6h0c.8.4,1.8.9,2.9,1.5.3-2,1.3-7.3,4.5-9.3-1.7-.7-3.5-1.3-5.7-2l-3.5,8.2Z"/>
      <path class="cls-1" d="M50.6,41.4h0s0,0,0,0c0,0-.1-.1-.2-.2,0,0,0,0,0,0-.2-.2-.6-.6-.9-.9,0,0,0,0,0,0-.2-.2-.4-.4-.5-.6-.1-.1-.2-.2-.3-.3-.6-.7-1.1-1.4-1.7-2.1-1.7.5-2.7,3.1-3.1,4.7.4.2.8.4,1.2.6,0,0,2.5,1.5,3.2,1.6h0c1.2.6,2.1,1,2.5,1,.1,0,.2,0,.3-.1.6-.3,1.1-.5,1.1-.9,0-.3-.1-1.1-1.6-2.7Z"/>
      <path class="cls-1" d="M44.3,34h0s0,0,0,0c0,0-.2-.2-.2-.3,0,0,0,0,0,0-.2-.2-.5-.6-.8-.9,0,0,0,0,0,0,0,0,0,0,0,0-.2-.2-.4-.4-.6-.6,0,0,0,0,0,0,0,0,0,0,0,0h0c-.7-.7-1.6-1.3-2.6-2h0c-2.3.4-4.3,5.5-5.1,8.1,1,.4,1.9.8,2.9,1.1h0s3.1,1.3,3.1,1.3h0c.7.3,1.5.7,2.1,1,.5-1.5,1.5-4.3,3.5-5.2-.6-.7-1.2-1.5-1.9-2.4Z"/>
      <path class="cls-1" d="M35.9,27.6h0s0,0,0,0c-.3-.2-.6-.3-.9-.4,0,0,0,0,0,0l-1.4-.7s0,0,0,0c-1.2-.5-2.5-1.1-3.9-1.7-3.7,1.3-4.7,7.7-4.9,9.2,1.1.5,2.4,1.1,3.7,1.6h0s2,.9,2,.9h0c1,.4,2.1.8,3.3,1.2.6-2.1,2.3-7.1,4.9-8.5-.8-.5-1.8-1.1-2.8-1.6Z"/>
      <path class="cls-1" d="M43.8,22.8c-.2.1-.5.3-.8.3-.6,0-1.5-.3-3.1-2.6-.2-.3-.3-.5-.5-.7h0c-.4-.4-.7-.7-.7-.7l-1.2-.8h0c-.2-.2-.5-.3-.7-.5-.8-.5-1.5-.9-2.3-1.3-3.6,3.2-4.2,6.5-4.3,7.5,1.4.5,2.6,1.1,3.8,1.6l2.3,1.1c1.2.6,2.2,1.2,3.2,1.8.5-1.6,1.7-4.5,4.8-5.3-.1-.1-.3-.2-.4-.3Z"/>
      <path class="cls-1" d="M33.3,38.7c-.9-.3-1.8-.7-2.6-1h0s-2.5-1.1-2.5-1.1c-1.4-.6-2.7-1.2-3.8-1.7-.9,1.3-4.1,5.9-4.5,9.1,1.1.7,2.1,1.6,2.9,2.5.1.2.8,1,1.8,2.4.9,1.4,1.5,2.6,1.7,3.2.3,0,.7.2,1.1.3-.6-5.3,4.5-12.1,5.8-13.8Z"/>
      <path class="cls-1" d="M38.3,51.9c.5-5.1,3.1-8.3,4.1-9.4-1-.5-2.1-.9-3.2-1.5,0,0,0,0,0,0l-1.9-.8h0c-.9-.4-1.9-.8-2.9-1.1-.7.8-6.7,8.3-5.9,13.6.3,1.5,1.3,2.5,2.3,3.1h0s1.2,1,6.9,1.9h0c1,.2,1.8,0,1.8,0-1.3-1.5-1.3-4.4-1.3-5.7Z"/>
      <path class="cls-1" d="M49.1,28h0s-1.1-1.3-1.1-1.3c0,0,0,0,0,0,0,0-.2-.2-.3-.3l-.2-.2h0c-.7-.8-1.5-1.5-2.3-2.2-3.5.3-4.6,3.7-4.9,5,1,.7,1.9,1.4,2.7,2.1,0,0,0,0,.1.1.2.2.3.3.5.5.3.3.7.7,1,1.1,0,0,0,0,0,0,.9.9,1.5,1.8,2.2,2.7.5-1.3,1.7-3.5,4-4.9-.5-.9-1.1-1.8-1.8-2.6Z"/>
      <path class="cls-1" d="M52.9,40.5c.5-1.3,1.7-3.1,3.8-3.3,0,0-.3-1.2-1.2-3,0,0,0,0,0,0,0,0-.1-.2-.3-.5,0,0,0,0,0,0h0c-.6-1-2.3-3.1-3.8-2.3-2.5,1.5-3.5,4.1-3.8,5,.7.8,1.3,1.7,2.1,2.5h0s.2.2.2.2c0,0,0,0,0,0,0,0,0,0,0,0l1,1c1.1,1.1,1.8,2.1,2.1,2.9,1.2-.4,3.1-.9,4.5-.9l2.5.3s-2.7-3.2-7.1-2.1Z"/>
      <path class="cls-1" d="M51.6,45.9c0,0-.1,0-.1,0,0,0-.2,0-.3.1-.1,0-.3.1-.5.1-.3,0-.7,0-1.1-.3,0,0-.1,0-.2,0-.4-.2-.9-.4-1.5-.7l-2.1-1h0c-.1,0-.3-.2-.4-.2-.6-.3-1.3-.6-2-.9-.5.5-3.5,3.8-4.1,9,0,0-.4,3.6,2.7,5.3h0s0,0,.2.1c.3.2.6.3,1,.4,0,0,0,0,0,0,.8.3,1.9.5,2.7.2,0,0,1-.7,1.2-1.2,0,0-.3-.2-.6-.7,0-.2-1.1-5.2,2.5-8.9,0,1.6.7,4.5,3.5,6.7-.2,0-1.5-4.9-1.1-8.1Z"/>
</svg>