<?xml version="1.0" encoding="UTF-8"?>
<svg xmlns="http://www.w3.org/2000/svg" version="1.1" viewBox="0 0 60 60">
  <defs>
    <style>
      .cls-1 {
        fill: #96bb16;
        stroke-width: 0px;
      }
    </style>
  </defs>
      <path class="cls-1" d="M59.7,18.7c0-.7-.6-1.3-1.3-1.3l-11.1-.3c-.3,0-.6,0-.8.3l-5.1,3.9-.6-4.7c0-.4-.3-.7-.6-.9-.3-.2-.7-.3-1.1-.1l-5.7,1.9-5.8-11.8c-.1-.3-.4-.5-.7-.6L15.7.1c-.4-.2-.8-.1-1.2,0-.4.2-.6.6-.6,1l-.9,12.1c0,.3,0,.6.2.9l13.2,18.8-11.5,15.2c-.3.3-.3.8-.2,1.2l3,9.7c.1.4.4.7.7.8.2,0,.4.1.5.1s.4,0,.6-.1l11.5-5.4c.3-.1.5-.4.6-.6l4.4-9.6,8.5.8c.7,0,1.3-.4,1.4-1l1.2-5.4,12.1-9c.3-.3.5-.7.5-1.1l-.2-9.9ZM25.4,7.2l6.1,12.4c.3.6,1,.9,1.6.7l3.7-1.2-2.6,8.3c-.2.6,0,1.2.5,1.5.2.2.5.2.7.2s.6-.1.8-.3l4.5-3.7c.2,0,.3-.1.5-.2l6.5-5.1,8.7.2-13.4,13.8c-.3.3-.4.6-.4,1,0,.4.2.7.4.9l1.9,1.6c0,.1-.1.2-.1.4l-.8,3.6-11-8.8c0,0,0-.1,0-.2l-9.8-20.3c-.2-.5-.7-.8-1.3-.7l-6.2.5.6-8.4,9,4ZM17.5,49.2l11.3-14.9h2.2c0,.1,1.2,3.5,1.2,3.5-.1,0-.2.2-.3.3l-12.2,18.1-2.1-6.9Z"/>
      <path class="cls-1" d="M22.1,32.6c0-.5-.4-.9-.9-1.1l-12.9-4.2c-.5-.2-1,0-1.3.3L.5,34.3c-.3.3-.4.7-.3,1.1,0,.4.3.8.7.9l8.5,4.1c.2,0,.4.1.6.1s.5,0,.7-.2l10.8-6.6c.4-.3.7-.8.6-1.3ZM8.2,30.1l8.9,2.9c0,0-.1,0-.2,0l-12.9,1.6c0,0-.2,0-.3,0l4.4-4.6Z"/>
</svg>