<?xml version="1.0" encoding="UTF-8"?>
<svg xmlns="http://www.w3.org/2000/svg" version="1.1" viewBox="0 0 60 60">
  <defs>
    <style>
      .cls-1 {
        fill: #96bb16;
        stroke-width: 0px;
      }
    </style>
  </defs>
      <path class="cls-1" d="M12.3,49.8c0-.7-.6-1.2-1.2-1.2-4.5,0-6.2-.4-6.2,1.2s1.7,1.2,6.2,1.2,1.2-.6,1.2-1.2Z"/>
      <path class="cls-1" d="M16.9,53.6c-4.5,0-6.2-.4-6.2,1.2s1.7,1.2,6.2,1.2,1.2-.6,1.2-1.2-.6-1.2-1.2-1.2Z"/>
      <path class="cls-1" d="M35.8,51.7c-4.5,0-6.2-.4-6.2,1.2s1.7,1.2,6.2,1.2,1.2-.6,1.2-1.2-.6-1.2-1.2-1.2Z"/>
      <path class="cls-1" d="M43.8,54.9c-4.5,0-6.2-.4-6.2,1.2s1.7,1.2,6.2,1.2,1.2-.6,1.2-1.2-.6-1.2-1.2-1.2Z"/>
      <path class="cls-1" d="M55.1,51.2c-4.5,0-6.2-.4-6.2,1.2s1.7,1.2,6.2,1.2,1.2-.6,1.2-1.2-.6-1.2-1.2-1.2Z"/>
      <path class="cls-1" d="M58.7,40.4c-2.9,0-3.2-2.5-7.2-2.5s-3.6,1.1-4.9,1.8l-4-18c0-.2-.2-.4-.4-.6h0l-7.1-3.8s0,0,0,0c0,0,0,0,0,0,0,0,0,0,0,0,0,0,0,0,0,0,0,0,0,0,0,0,0,0,0,0,0,0,0,0-.1,0-.2,0l-7.3,1.6-.4-1.7c0-.4-.5-.7-1-.6l-3.8.8c-.4,0-.7.5-.6,1l.4,1.7-2.6.6c-.2,0-.4.2-.5.3l-4.8,6.4c-.1.2-.2.4-.1.7l2.7,12.2c-.3,0-.6.1-1,.1-2.9,0-3.2-2.5-7.2-2.5s-4.2,2.5-7.2,2.5S0,41,0,41.7s.6,1.2,1.2,1.2c3.9,0,4.3-2.5,7.2-2.5s3.2,2.5,7.2,2.5,1.1,0,1.5-.2l.5,2.1h-2c-.7,0-1.3.7-1.3,1.5s.6,1.5,1.3,1.5h34.4c.7,0,1.3-.7,1.3-1.5s-.6-1.5-1.3-1.5h-2.2l-.6-2.5c1.6-.7,2.4-1.9,4.3-1.9,2.9,0,3.2,2.5,7.2,2.5s1.2-.6,1.2-1.2-.6-1.2-1.2-1.2ZM25.6,18.4l.2.9-2.2.5-.2-.9,2.2-.5ZM15.8,29l13.7-3,4.2,18.9h-1.9l-.2-1.1c0-.4-.5-.7-1-.6l-.8.2c-.4,0-.7.5-.6,1v.5c.1,0-5.8,0-5.8,0-.1,0-.3,0-.4,0h0s-3.5,0-3.5,0l-3.5-15.9ZM44.6,44.9c0-.1,0-.3,0-.4l-.7-3.4c0-.4-.5-.7-1-.6l-.8.2c-.4,0-.7.5-.6,1l.7,3.2h-2.3l-.6-2.8c0-.4-.5-.7-1-.6l-.8.2c-.4,0-.7.5-.6,1l.5,2.2h-1.9l-4.4-20.1,4.2-5.5,6.1,3.3,4.9,22.4h-1.5Z"/>
      <rect class="cls-1" x="38.4" y="25.2" width="2.5" height="5.1" rx=".8" ry=".8" transform="translate(-5 9.2) rotate(-12.4)"/>
      <rect class="cls-1" x="40.1" y="32.9" width="2.5" height="5.1" rx=".8" ry=".8" transform="translate(-6.6 9.7) rotate(-12.4)"/>
      <rect class="cls-1" x="20.1" y="37.2" width="2.5" height="5.1" rx=".8" ry=".8" transform="translate(-8.1 5.5) rotate(-12.4)"/>
      <rect class="cls-1" x="35.4" y="33.9" width="2.5" height="5.1" rx=".8" ry=".8" transform="translate(-7 8.7) rotate(-12.4)"/>
      <rect class="cls-1" x="33.7" y="26.2" width="2.5" height="5.1" rx=".8" ry=".8" transform="translate(-5.4 8.2) rotate(-12.4)"/>
      <rect class="cls-1" x="18.4" y="29.6" width="2.5" height="5.1" rx=".8" ry=".8" transform="translate(-6.5 5) rotate(-12.4)"/>
      <rect class="cls-1" x="22.3" y="28.8" width="2.5" height="5.1" rx=".8" ry=".8" transform="translate(-6.2 5.8) rotate(-12.4)"/>
      <rect class="cls-1" x="27.8" y="35.6" width="2.5" height="5.1" rx=".8" ry=".8" transform="translate(-7.5 7.1) rotate(-12.4)"/>
      <rect class="cls-1" x="26.1" y="27.9" width="2.5" height="5.1" rx=".8" ry=".8" transform="translate(-5.9 6.6) rotate(-12.4)"/>
      <rect class="cls-1" x="23.9" y="36.4" width="2.5" height="5.1" rx=".8" ry=".8" transform="translate(-7.8 6.3) rotate(-12.4)"/>

</svg>