<?xml version="1.0" encoding="UTF-8"?>
<svg id="_圖層_1" data-name="圖層 1" xmlns="http://www.w3.org/2000/svg" version="1.1" viewBox="0 0 28.3 28.3">
  <defs>
    <style>
      .cls-1 {
        fill: #fff;
        stroke-width: 0px;
      }
    </style>
  </defs>
  <path class="cls-1" d="M18.3,15.6c2.3-1.4,3.8-3.9,3.8-6.8,0-4.4-3.6-7.9-7.9-7.9s-7.9,3.6-7.9,7.9,1.5,5.4,3.8,6.8c-4.6,1.6-7.9,5.9-7.9,11s.4.9.9.9.9-.4.9-.9c0-5.4,4.5-9.8,10.1-9.8s10.1,4.4,10.1,9.8.4.9.9.9.9-.4.9-.9c0-5-3.3-9.3-7.9-11ZM8.1,8.8c0-3.3,2.7-6.1,6.1-6.1s6.1,2.7,6.1,6.1-2.7,6.1-6.1,6.1-6.1-2.7-6.1-6.1Z"/>
</svg>