<?xml version="1.0" encoding="UTF-8"?>
<svg id="_圖層_1" data-name="圖層 1" xmlns="http://www.w3.org/2000/svg" version="1.1" viewBox="0 0 28.3 28.3">
  <defs>
    <style>
      .cls-1 {
        fill: #fff;
        stroke-width: 0px;
      }
    </style>
  </defs>
  <path class="cls-1" d="M11.9,22.6c5.9,0,10.7-4.8,10.7-10.7S17.8,1.2,11.9,1.2,1.2,6,1.2,11.9s4.8,10.7,10.7,10.7ZM11.9,3.1c4.9,0,8.8,4,8.8,8.8s-4,8.8-8.8,8.8S3.1,16.8,3.1,11.9,7,3.1,11.9,3.1Z"/>
  <path class="cls-1" d="M22.3,21c-.4-.4-.9-.4-1.3,0s-.4.9,0,1.3l4.6,4.6c.2.2.4.3.7.3s.5,0,.7-.3c.4-.4.4-.9,0-1.3l-4.6-4.6Z"/>
</svg>